<svg height="36" viewBox="0 0 36 36" width="36" xmlns="http://www.w3.org/2000/svg"><g fill="none" fill-rule="evenodd"><path d="m18 36c9.9411255 0 18-8.0588745 18-18s-8.0588745-18-18-18-18 8.0588745-18 18 8.0588745 18 18 18z" fill="#71c03e"/><path d="m27.4493333 17.1756667v-2.0273334h-2.048v-2.0936666h-2.051v-2.004h2.0456667v-2.0506667h-2.0506667v2.0506667h-2.0456666v2.051h-6.1016667v-2.051h-2.0456667v-2.0506667h-2.0493333v2.0506667h2.0456667v2.004h-2.051v2.0936666h-2.04800003v2.0273334h-2.04966667v6.151h2.051v-4.1h2.048v4.1h2.0443333v2.0496666h4.1003334v-2.0496666h-4.0963334v-2.0506667h10.203v2.0506667h-4.095v2.0496666h4.1003334v-2.0496666h2.0443333v-4.1h2.048v4.1h2.0506667v-6.151zm-12.2576666 0h-2.0403334v-2.0246667h2.0403334zm8.156 0h-2.0403334v-2.0246667h2.0403334z" fill="#fff"/></g></svg>